0
SECTION
2
TABLES
0
TABLE
2
LTYPE
70
2
0
LTYPE
2
CONTINUOUS
70
0
3
Solid line
72
65
73
0
40
0.0
0
LTYPE
2
DASHDOT
70
0
3
Dash dot
72
65
73
4
40
600.0
49
400.0
49
-100.0
49
0.0
49
-100.0
0
ENDTAB
0
TABLE
2
LAYER
70
4
0
LAYER
2
1
70
0
62
1
6
DASHDOT
0
LAYER
2
2
70
0
62
1
6
CONTINUOUS
0
LAYER
2
3
70
0
62
2
6
CONTINUOUS
0
LAYER
2
4
70
0
62
1
6
CONTINUOUS
0
ENDTAB
0
TABLE
2
STYLE
70
1
0
STYLE
2
STANDARD
70
0
40
0.0
41
1.0
50
0.0
71
0
42
2.5
3
txt
4

0
ENDTAB
0
ENDSEC
0
SECTION
2
ENTITIES
0
LINE
8
3
10
-12460.0
20
3550.0
30
0.0
11
-8980.0
21
3550.0
31
0.0
0
LINE
8
3
10
-8980.0
20
3550.0
30
0.0
11
-8980.0
21
6050.0
31
0.0
0
LINE
8
3
10
-8980.0
20
6050.0
30
0.0
11
-12460.0
21
6050.0
31
0.0
0
LINE
8
3
10
-12460.0
20
6050.0
30
0.0
11
-12460.0
21
3550.0
31
0.0
0
LINE
8
1
10
-12540.0
20
2500.0
30
0.0
11
-12540.0
21
6950.0
31
0.0
0
CIRCLE
8
1
10
-12540.0
20
7300.0
30
0.0
40
250
0
LINE
8
1
10
-12885.0
20
7300.0
30
0.0
11
-12695.0
21
7300.0
31
0.0
0
LINE
8
1
10
-12385.0
20
7300.0
30
0.0
11
-12195.0
21
7300.0
31
0.0
0
LINE
8
1
10
-12540.0
20
6955.0
30
0.0
11
-12540.0
21
7145.0
31
0.0
0
LINE
8
1
10
-12540.0
20
7455.0
30
0.0
11
-12540.0
21
7645.0
31
0.0
0
TEXT
8
1
10
-12640.0
20
7200.0
30
0.0
40
200.0
1
X1
50
0
7
STANDARD
0
LINE
8
1
10
-8900.0
20
2500.0
30
0.0
11
-8900.0
21
6950.0
31
0.0
0
CIRCLE
8
1
10
-8900.0
20
7300.0
30
0.0
40
250
0
LINE
8
1
10
-9245.0
20
7300.0
30
0.0
11
-9055.0
21
7300.0
31
0.0
0
LINE
8
1
10
-8745.0
20
7300.0
30
0.0
11
-8555.0
21
7300.0
31
0.0
0
LINE
8
1
10
-8900.0
20
6955.0
30
0.0
11
-8900.0
21
7145.0
31
0.0
0
LINE
8
1
10
-8900.0
20
7455.0
30
0.0
11
-8900.0
21
7645.0
31
0.0
0
TEXT
8
1
10
-9000.0
20
7200.0
30
0.0
40
200.0
1
X2
50
0
7
STANDARD
0
LINE
8
2
10
-12540.0
20
6425.0
30
0.0
11
-8900.0
21
6425.0
31
0.0
0
CIRCLE
8
2
10
-12540.0
20
6425.0
30
0.0
40
25
0
CIRCLE
8
2
10
-8900.0
20
6425.0
30
0.0
40
25
0
TEXT
8
2
10
-10970.0
20
6455.0
30
0.0
40
200.0
1
3,640
50
0
7
STANDARD
0
LINE
8
2
10
-13300.0
20
3550.0
30
0.0
11
-13300.0
21
6050.0
31
0.0
0
CIRCLE
8
2
10
-13300.0
20
3550.0
30
0.0
40
25
0
CIRCLE
8
2
10
-13300.0
20
6050.0
30
0.0
40
25
0
LINE
8
2
10
-13300.0
20
3550.0
30
0.0
11
-12760.0
21
3550.0
31
0.0
0
LINE
8
2
10
-13300.0
20
6050.0
30
0.0
11
-12760.0
21
6050.0
31
0.0
0
TEXT
8
2
10
-13330.0
20
4550.0
30
0.0
40
200.0
1
2,500
50
90
7
STANDARD
0
TEXT
8
4
10
-11095.0
20
4675.0
30
0.0
40
250.0
1
ómé∫-1
50
0
7
STANDARD
0
LINE
8
3
10
-11245.0
20
2650.0
30
0.0
11
-10195.0
21
2650.0
31
0.0
0
LINE
8
3
10
-10195.0
20
2650.0
30
0.0
11
-10195.0
21
3000.0
31
0.0
0
LINE
8
3
10
-10195.0
20
3000.0
30
0.0
11
-11245.0
21
3000.0
31
0.0
0
LINE
8
3
10
-11245.0
20
3000.0
30
0.0
11
-11245.0
21
2650.0
31
0.0
0
TEXT
8
4
10
-11095.0
20
2700.0
30
0.0
40
250.0
1
Ç`Å@ñ 
50
0
7
STANDARD
0
LINE
8
3
10
-4320.0
20
3550.0
30
0.0
11
-1930.0
21
3550.0
31
0.0
0
LINE
8
3
10
-1930.0
20
3550.0
30
0.0
11
-1930.0
21
6050.0
31
0.0
0
LINE
8
3
10
-1930.0
20
6050.0
30
0.0
11
-4320.0
21
6050.0
31
0.0
0
LINE
8
3
10
-4320.0
20
6050.0
30
0.0
11
-4320.0
21
3550.0
31
0.0
0
LINE
8
3
10
-3500.0
20
3550.0
30
0.0
11
-3500.0
21
6050.0
31
0.0
0
LINE
8
1
10
-4400.0
20
2500.0
30
0.0
11
-4400.0
21
6950.0
31
0.0
0
CIRCLE
8
1
10
-4400.0
20
7300.0
30
0.0
40
250
0
LINE
8
1
10
-4745.0
20
7300.0
30
0.0
11
-4555.0
21
7300.0
31
0.0
0
LINE
8
1
10
-4245.0
20
7300.0
30
0.0
11
-4055.0
21
7300.0
31
0.0
0
LINE
8
1
10
-4400.0
20
6955.0
30
0.0
11
-4400.0
21
7145.0
31
0.0
0
LINE
8
1
10
-4400.0
20
7455.0
30
0.0
11
-4400.0
21
7645.0
31
0.0
0
TEXT
8
1
10
-4500.0
20
7200.0
30
0.0
40
200.0
1
Y2
50
0
7
STANDARD
0
LINE
8
1
10
-3420.0
20
2500.0
30
0.0
11
-3420.0
21
6950.0
31
0.0
0
LINE
8
1
10
-1850.0
20
2500.0
30
0.0
11
-1850.0
21
6950.0
31
0.0
0
LINE
8
2
10
-4400.0
20
6425.0
30
0.0
11
-3420.0
21
6425.0
31
0.0
0
CIRCLE
8
2
10
-4400.0
20
6425.0
30
0.0
40
25
0
CIRCLE
8
2
10
-3420.0
20
6425.0
30
0.0
40
25
0
TEXT
8
2
10
-4060.0
20
6455.0
30
0.0
40
200.0
1
980
50
0
7
STANDARD
0
LINE
8
2
10
-3420.0
20
6425.0
30
0.0
11
-1850.0
21
6425.0
31
0.0
0
CIRCLE
8
2
10
-3420.0
20
6425.0
30
0.0
40
25
0
CIRCLE
8
2
10
-1850.0
20
6425.0
30
0.0
40
25
0
TEXT
8
2
10
-2885.0
20
6455.0
30
0.0
40
200.0
1
1,570
50
0
7
STANDARD
0
LINE
8
2
10
-4400.0
20
6875.0
30
0.0
11
-1850.0
21
6875.0
31
0.0
0
CIRCLE
8
2
10
-4400.0
20
6875.0
30
0.0
40
25
0
CIRCLE
8
2
10
-1850.0
20
6875.0
30
0.0
40
25
0
TEXT
8
2
10
-3375.0
20
6905.0
30
0.0
40
200.0
1
2,550
50
0
7
STANDARD
0
LINE
8
2
10
-5160.0
20
3550.0
30
0.0
11
-5160.0
21
6050.0
31
0.0
0
CIRCLE
8
2
10
-5160.0
20
3550.0
30
0.0
40
25
0
CIRCLE
8
2
10
-5160.0
20
6050.0
30
0.0
40
25
0
LINE
8
2
10
-5160.0
20
3550.0
30
0.0
11
-4620.0
21
3550.0
31
0.0
0
LINE
8
2
10
-5160.0
20
6050.0
30
0.0
11
-4620.0
21
6050.0
31
0.0
0
TEXT
8
2
10
-5190.0
20
4550.0
30
0.0
40
200.0
1
2,500
50
90
7
STANDARD
0
TEXT
8
4
10
-3500.0
20
4675.0
30
0.0
40
250.0
1
ómé∫-1
50
0
7
STANDARD
0
LINE
8
3
10
-3650.0
20
2650.0
30
0.0
11
-2600.0
21
2650.0
31
0.0
0
LINE
8
3
10
-2600.0
20
2650.0
30
0.0
11
-2600.0
21
3000.0
31
0.0
0
LINE
8
3
10
-2600.0
20
3000.0
30
0.0
11
-3650.0
21
3000.0
31
0.0
0
LINE
8
3
10
-3650.0
20
3000.0
30
0.0
11
-3650.0
21
2650.0
31
0.0
0
TEXT
8
4
10
-3500.0
20
2700.0
30
0.0
40
250.0
1
ÇaÅ@ñ 
50
0
7
STANDARD
0
LINE
8
3
10
2730.0
20
3550.0
30
0.0
11
6210.0
21
3550.0
31
0.0
0
LINE
8
3
10
6210.0
20
3550.0
30
0.0
11
6210.0
21
6050.0
31
0.0
0
LINE
8
3
10
6210.0
20
6050.0
30
0.0
11
2730.0
21
6050.0
31
0.0
0
LINE
8
3
10
2730.0
20
6050.0
30
0.0
11
2730.0
21
3550.0
31
0.0
0
LINE
8
3
10
3640.0
20
3550.0
30
0.0
11
3640.0
21
6050.0
31
0.0
0
LINE
8
1
10
2650.0
20
2500.0
30
0.0
11
2650.0
21
6950.0
31
0.0
0
CIRCLE
8
1
10
2650.0
20
7300.0
30
0.0
40
250
0
LINE
8
1
10
2305.0
20
7300.0
30
0.0
11
2495.0
21
7300.0
31
0.0
0
LINE
8
1
10
2805.0
20
7300.0
30
0.0
11
2995.0
21
7300.0
31
0.0
0
LINE
8
1
10
2650.0
20
6955.0
30
0.0
11
2650.0
21
7145.0
31
0.0
0
LINE
8
1
10
2650.0
20
7455.0
30
0.0
11
2650.0
21
7645.0
31
0.0
0
TEXT
8
1
10
2550.0
20
7200.0
30
0.0
40
200.0
1
X2
50
0
7
STANDARD
0
LINE
8
1
10
3560.0
20
2500.0
30
0.0
11
3560.0
21
6950.0
31
0.0
0
LINE
8
1
10
6290.0
20
2500.0
30
0.0
11
6290.0
21
6950.0
31
0.0
0
CIRCLE
8
1
10
6290.0
20
7300.0
30
0.0
40
250
0
LINE
8
1
10
5945.0
20
7300.0
30
0.0
11
6135.0
21
7300.0
31
0.0
0
LINE
8
1
10
6445.0
20
7300.0
30
0.0
11
6635.0
21
7300.0
31
0.0
0
LINE
8
1
10
6290.0
20
6955.0
30
0.0
11
6290.0
21
7145.0
31
0.0
0
LINE
8
1
10
6290.0
20
7455.0
30
0.0
11
6290.0
21
7645.0
31
0.0
0
TEXT
8
1
10
6190.0
20
7200.0
30
0.0
40
200.0
1
X1
50
0
7
STANDARD
0
LINE
8
2
10
2650.0
20
6425.0
30
0.0
11
3560.0
21
6425.0
31
0.0
0
CIRCLE
8
2
10
2650.0
20
6425.0
30
0.0
40
25
0
CIRCLE
8
2
10
3560.0
20
6425.0
30
0.0
40
25
0
TEXT
8
2
10
2955.0
20
6455.0
30
0.0
40
200.0
1
910
50
0
7
STANDARD
0
LINE
8
2
10
3560.0
20
6425.0
30
0.0
11
6290.0
21
6425.0
31
0.0
0
CIRCLE
8
2
10
3560.0
20
6425.0
30
0.0
40
25
0
CIRCLE
8
2
10
6290.0
20
6425.0
30
0.0
40
25
0
TEXT
8
2
10
4675.0
20
6455.0
30
0.0
40
200.0
1
2,730
50
0
7
STANDARD
0
LINE
8
2
10
2650.0
20
6875.0
30
0.0
11
6290.0
21
6875.0
31
0.0
0
CIRCLE
8
2
10
2650.0
20
6875.0
30
0.0
40
25
0
CIRCLE
8
2
10
6290.0
20
6875.0
30
0.0
40
25
0
TEXT
8
2
10
4220.0
20
6905.0
30
0.0
40
200.0
1
3,640
50
0
7
STANDARD
0
LINE
8
2
10
1890.0
20
3550.0
30
0.0
11
1890.0
21
6050.0
31
0.0
0
CIRCLE
8
2
10
1890.0
20
3550.0
30
0.0
40
25
0
CIRCLE
8
2
10
1890.0
20
6050.0
30
0.0
40
25
0
LINE
8
2
10
1890.0
20
3550.0
30
0.0
11
2430.0
21
3550.0
31
0.0
0
LINE
8
2
10
1890.0
20
6050.0
30
0.0
11
2430.0
21
6050.0
31
0.0
0
TEXT
8
2
10
1860.0
20
4550.0
30
0.0
40
200.0
1
2,500
50
90
7
STANDARD
0
TEXT
8
4
10
4095.0
20
4675.0
30
0.0
40
250.0
1
ómé∫-1
50
0
7
STANDARD
0
LINE
8
3
10
3945.0
20
2650.0
30
0.0
11
4995.0
21
2650.0
31
0.0
0
LINE
8
3
10
4995.0
20
2650.0
30
0.0
11
4995.0
21
3000.0
31
0.0
0
LINE
8
3
10
4995.0
20
3000.0
30
0.0
11
3945.0
21
3000.0
31
0.0
0
LINE
8
3
10
3945.0
20
3000.0
30
0.0
11
3945.0
21
2650.0
31
0.0
0
TEXT
8
4
10
4095.0
20
2700.0
30
0.0
40
250.0
1
ÇbÅ@ñ 
50
0
7
STANDARD
0
LINE
8
3
10
10870.0
20
3550.0
30
0.0
11
13260.0
21
3550.0
31
0.0
0
LINE
8
3
10
13260.0
20
3550.0
30
0.0
11
13260.0
21
6050.0
31
0.0
0
LINE
8
3
10
13260.0
20
6050.0
30
0.0
11
10870.0
21
6050.0
31
0.0
0
LINE
8
3
10
10870.0
20
6050.0
30
0.0
11
10870.0
21
3550.0
31
0.0
0
LINE
8
1
10
10790.0
20
2500.0
30
0.0
11
10790.0
21
6950.0
31
0.0
0
LINE
8
1
10
13340.0
20
2500.0
30
0.0
11
13340.0
21
6950.0
31
0.0
0
CIRCLE
8
1
10
13340.0
20
7300.0
30
0.0
40
250
0
LINE
8
1
10
12995.0
20
7300.0
30
0.0
11
13185.0
21
7300.0
31
0.0
0
LINE
8
1
10
13495.0
20
7300.0
30
0.0
11
13685.0
21
7300.0
31
0.0
0
LINE
8
1
10
13340.0
20
6955.0
30
0.0
11
13340.0
21
7145.0
31
0.0
0
LINE
8
1
10
13340.0
20
7455.0
30
0.0
11
13340.0
21
7645.0
31
0.0
0
TEXT
8
1
10
13240.0
20
7200.0
30
0.0
40
200.0
1
Y2
50
0
7
STANDARD
0
LINE
8
2
10
10790.0
20
6425.0
30
0.0
11
13340.0
21
6425.0
31
0.0
0
CIRCLE
8
2
10
10790.0
20
6425.0
30
0.0
40
25
0
CIRCLE
8
2
10
13340.0
20
6425.0
30
0.0
40
25
0
TEXT
8
2
10
11815.0
20
6455.0
30
0.0
40
200.0
1
2,550
50
0
7
STANDARD
0
LINE
8
2
10
10030.0
20
3550.0
30
0.0
11
10030.0
21
6050.0
31
0.0
0
CIRCLE
8
2
10
10030.0
20
3550.0
30
0.0
40
25
0
CIRCLE
8
2
10
10030.0
20
6050.0
30
0.0
40
25
0
LINE
8
2
10
10030.0
20
3550.0
30
0.0
11
10570.0
21
3550.0
31
0.0
0
LINE
8
2
10
10030.0
20
6050.0
30
0.0
11
10570.0
21
6050.0
31
0.0
0
TEXT
8
2
10
10000.0
20
4550.0
30
0.0
40
200.0
1
2,500
50
90
7
STANDARD
0
TEXT
8
4
10
11690.0
20
4675.0
30
0.0
40
250.0
1
ómé∫-1
50
0
7
STANDARD
0
LINE
8
3
10
11540.0
20
2650.0
30
0.0
11
12590.0
21
2650.0
31
0.0
0
LINE
8
3
10
12590.0
20
2650.0
30
0.0
11
12590.0
21
3000.0
31
0.0
0
LINE
8
3
10
12590.0
20
3000.0
30
0.0
11
11540.0
21
3000.0
31
0.0
0
LINE
8
3
10
11540.0
20
3000.0
30
0.0
11
11540.0
21
2650.0
31
0.0
0
TEXT
8
4
10
11690.0
20
2700.0
30
0.0
40
250.0
1
ÇcÅ@ñ 
50
0
7
STANDARD
0
LINE
8
3
10
-14460.0
20
-6450.0
30
0.0
11
-10980.0
21
-6450.0
31
0.0
0
LINE
8
3
10
-10980.0
20
-6450.0
30
0.0
11
-10980.0
21
-3750.0
31
0.0
0
LINE
8
3
10
-10980.0
20
-3750.0
30
0.0
11
-14460.0
21
-3750.0
31
0.0
0
LINE
8
3
10
-14460.0
20
-3750.0
30
0.0
11
-14460.0
21
-6450.0
31
0.0
0
LINE
8
3
10
-13080.0
20
-6450.0
30
0.0
11
-13080.0
21
-3750.0
31
0.0
0
LINE
8
1
10
-14540.0
20
-7500.0
30
0.0
11
-14540.0
21
-2850.0
31
0.0
0
CIRCLE
8
1
10
-14540.0
20
-2500.0
30
0.0
40
250
0
LINE
8
1
10
-14885.0
20
-2500.0
30
0.0
11
-14695.0
21
-2500.0
31
0.0
0
LINE
8
1
10
-14385.0
20
-2500.0
30
0.0
11
-14195.0
21
-2500.0
31
0.0
0
LINE
8
1
10
-14540.0
20
-2845.0
30
0.0
11
-14540.0
21
-2655.0
31
0.0
0
LINE
8
1
10
-14540.0
20
-2345.0
30
0.0
11
-14540.0
21
-2155.0
31
0.0
0
TEXT
8
1
10
-14640.0
20
-2600.0
30
0.0
40
200.0
1
X2
50
0
7
STANDARD
0
LINE
8
1
10
-13000.0
20
-7500.0
30
0.0
11
-13000.0
21
-2850.0
31
0.0
0
LINE
8
1
10
-10900.0
20
-7500.0
30
0.0
11
-10900.0
21
-2850.0
31
0.0
0
CIRCLE
8
1
10
-10900.0
20
-2500.0
30
0.0
40
250
0
LINE
8
1
10
-11245.0
20
-2500.0
30
0.0
11
-11055.0
21
-2500.0
31
0.0
0
LINE
8
1
10
-10745.0
20
-2500.0
30
0.0
11
-10555.0
21
-2500.0
31
0.0
0
LINE
8
1
10
-10900.0
20
-2845.0
30
0.0
11
-10900.0
21
-2655.0
31
0.0
0
LINE
8
1
10
-10900.0
20
-2345.0
30
0.0
11
-10900.0
21
-2155.0
31
0.0
0
TEXT
8
1
10
-11000.0
20
-2600.0
30
0.0
40
200.0
1
X3
50
0
7
STANDARD
0
LINE
8
2
10
-14540.0
20
-3375.0
30
0.0
11
-13000.0
21
-3375.0
31
0.0
0
CIRCLE
8
2
10
-14540.0
20
-3375.0
30
0.0
40
25
0
CIRCLE
8
2
10
-13000.0
20
-3375.0
30
0.0
40
25
0
TEXT
8
2
10
-14020.0
20
-3345.0
30
0.0
40
200.0
1
1,540
50
0
7
STANDARD
0
LINE
8
2
10
-13000.0
20
-3375.0
30
0.0
11
-10900.0
21
-3375.0
31
0.0
0
CIRCLE
8
2
10
-13000.0
20
-3375.0
30
0.0
40
25
0
CIRCLE
8
2
10
-10900.0
20
-3375.0
30
0.0
40
25
0
TEXT
8
2
10
-12200.0
20
-3345.0
30
0.0
40
200.0
1
2,100
50
0
7
STANDARD
0
LINE
8
2
10
-14540.0
20
-2925.0
30
0.0
11
-10900.0
21
-2925.0
31
0.0
0
CIRCLE
8
2
10
-14540.0
20
-2925.0
30
0.0
40
25
0
CIRCLE
8
2
10
-10900.0
20
-2925.0
30
0.0
40
25
0
TEXT
8
2
10
-12970.0
20
-2895.0
30
0.0
40
200.0
1
3,640
50
0
7
STANDARD
0
LINE
8
2
10
-15300.0
20
-6450.0
30
0.0
11
-15300.0
21
-3750.0
31
0.0
0
CIRCLE
8
2
10
-15300.0
20
-6450.0
30
0.0
40
25
0
CIRCLE
8
2
10
-15300.0
20
-3750.0
30
0.0
40
25
0
LINE
8
2
10
-15300.0
20
-6450.0
30
0.0
11
-14760.0
21
-6450.0
31
0.0
0
LINE
8
2
10
-15300.0
20
-3750.0
30
0.0
11
-14760.0
21
-3750.0
31
0.0
0
TEXT
8
2
10
-15330.0
20
-5350.0
30
0.0
40
200.0
1
2,700
50
90
7
STANDARD
0
TEXT
8
4
10
-13095.0
20
-5225.0
30
0.0
40
250.0
1
éññ±é∫
50
0
7
STANDARD
0
LINE
8
3
10
-13245.0
20
-7350.0
30
0.0
11
-12195.0
21
-7350.0
31
0.0
0
LINE
8
3
10
-12195.0
20
-7350.0
30
0.0
11
-12195.0
21
-7000.0
31
0.0
0
LINE
8
3
10
-12195.0
20
-7000.0
30
0.0
11
-13245.0
21
-7000.0
31
0.0
0
LINE
8
3
10
-13245.0
20
-7000.0
30
0.0
11
-13245.0
21
-7350.0
31
0.0
0
TEXT
8
4
10
-13095.0
20
-7300.0
30
0.0
40
250.0
1
Ç`Å@ñ 
50
0
7
STANDARD
0
LINE
8
3
10
-6320.0
20
-6450.0
30
0.0
11
-1930.0
21
-6450.0
31
0.0
0
LINE
8
3
10
-1930.0
20
-6450.0
30
0.0
11
-1930.0
21
-3750.0
31
0.0
0
LINE
8
3
10
-1930.0
20
-3750.0
30
0.0
11
-6320.0
21
-3750.0
31
0.0
0
LINE
8
3
10
-6320.0
20
-3750.0
30
0.0
11
-6320.0
21
-6450.0
31
0.0
0
LINE
8
3
10
-5320.0
20
-6450.0
30
0.0
11
-5320.0
21
-3750.0
31
0.0
0
LINE
8
1
10
-6400.0
20
-7500.0
30
0.0
11
-6400.0
21
-2850.0
31
0.0
0
CIRCLE
8
1
10
-6400.0
20
-2500.0
30
0.0
40
250
0
LINE
8
1
10
-6745.0
20
-2500.0
30
0.0
11
-6555.0
21
-2500.0
31
0.0
0
LINE
8
1
10
-6245.0
20
-2500.0
30
0.0
11
-6055.0
21
-2500.0
31
0.0
0
LINE
8
1
10
-6400.0
20
-2845.0
30
0.0
11
-6400.0
21
-2655.0
31
0.0
0
LINE
8
1
10
-6400.0
20
-2345.0
30
0.0
11
-6400.0
21
-2155.0
31
0.0
0
TEXT
8
1
10
-6500.0
20
-2600.0
30
0.0
40
200.0
1
Y4
50
0
7
STANDARD
0
LINE
8
1
10
-5400.0
20
-7500.0
30
0.0
11
-5400.0
21
-2850.0
31
0.0
0
LINE
8
1
10
-1850.0
20
-7500.0
30
0.0
11
-1850.0
21
-2850.0
31
0.0
0
LINE
8
2
10
-6400.0
20
-3375.0
30
0.0
11
-5400.0
21
-3375.0
31
0.0
0
CIRCLE
8
2
10
-6400.0
20
-3375.0
30
0.0
40
25
0
CIRCLE
8
2
10
-5400.0
20
-3375.0
30
0.0
40
25
0
TEXT
8
2
10
-6150.0
20
-3345.0
30
0.0
40
200.0
1
1,000
50
0
7
STANDARD
0
LINE
8
2
10
-5400.0
20
-3375.0
30
0.0
11
-1850.0
21
-3375.0
31
0.0
0
CIRCLE
8
2
10
-5400.0
20
-3375.0
30
0.0
40
25
0
CIRCLE
8
2
10
-1850.0
20
-3375.0
30
0.0
40
25
0
TEXT
8
2
10
-3875.0
20
-3345.0
30
0.0
40
200.0
1
3,550
50
0
7
STANDARD
0
LINE
8
2
10
-6400.0
20
-2925.0
30
0.0
11
-1850.0
21
-2925.0
31
0.0
0
CIRCLE
8
2
10
-6400.0
20
-2925.0
30
0.0
40
25
0
CIRCLE
8
2
10
-1850.0
20
-2925.0
30
0.0
40
25
0
TEXT
8
2
10
-4375.0
20
-2895.0
30
0.0
40
200.0
1
4,550
50
0
7
STANDARD
0
LINE
8
2
10
-7160.0
20
-6450.0
30
0.0
11
-7160.0
21
-3750.0
31
0.0
0
CIRCLE
8
2
10
-7160.0
20
-6450.0
30
0.0
40
25
0
CIRCLE
8
2
10
-7160.0
20
-3750.0
30
0.0
40
25
0
LINE
8
2
10
-7160.0
20
-6450.0
30
0.0
11
-6620.0
21
-6450.0
31
0.0
0
LINE
8
2
10
-7160.0
20
-3750.0
30
0.0
11
-6620.0
21
-3750.0
31
0.0
0
TEXT
8
2
10
-7190.0
20
-5350.0
30
0.0
40
200.0
1
2,700
50
90
7
STANDARD
0
TEXT
8
4
10
-4500.0
20
-5225.0
30
0.0
40
250.0
1
éññ±é∫
50
0
7
STANDARD
0
LINE
8
3
10
-4650.0
20
-7350.0
30
0.0
11
-3600.0
21
-7350.0
31
0.0
0
LINE
8
3
10
-3600.0
20
-7350.0
30
0.0
11
-3600.0
21
-7000.0
31
0.0
0
LINE
8
3
10
-3600.0
20
-7000.0
30
0.0
11
-4650.0
21
-7000.0
31
0.0
0
LINE
8
3
10
-4650.0
20
-7000.0
30
0.0
11
-4650.0
21
-7350.0
31
0.0
0
TEXT
8
4
10
-4500.0
20
-7300.0
30
0.0
40
250.0
1
ÇaÅ@ñ 
50
0
7
STANDARD
0
LINE
8
3
10
2730.0
20
-6450.0
30
0.0
11
6210.0
21
-6450.0
31
0.0
0
LINE
8
3
10
6210.0
20
-6450.0
30
0.0
11
6210.0
21
-3750.0
31
0.0
0
LINE
8
3
10
6210.0
20
-3750.0
30
0.0
11
2730.0
21
-3750.0
31
0.0
0
LINE
8
3
10
2730.0
20
-3750.0
30
0.0
11
2730.0
21
-6450.0
31
0.0
0
LINE
8
1
10
2650.0
20
-7500.0
30
0.0
11
2650.0
21
-2850.0
31
0.0
0
CIRCLE
8
1
10
2650.0
20
-2500.0
30
0.0
40
250
0
LINE
8
1
10
2305.0
20
-2500.0
30
0.0
11
2495.0
21
-2500.0
31
0.0
0
LINE
8
1
10
2805.0
20
-2500.0
30
0.0
11
2995.0
21
-2500.0
31
0.0
0
LINE
8
1
10
2650.0
20
-2845.0
30
0.0
11
2650.0
21
-2655.0
31
0.0
0
LINE
8
1
10
2650.0
20
-2345.0
30
0.0
11
2650.0
21
-2155.0
31
0.0
0
TEXT
8
1
10
2550.0
20
-2600.0
30
0.0
40
200.0
1
X3
50
0
7
STANDARD
0
LINE
8
1
10
6290.0
20
-7500.0
30
0.0
11
6290.0
21
-2850.0
31
0.0
0
CIRCLE
8
1
10
6290.0
20
-2500.0
30
0.0
40
250
0
LINE
8
1
10
5945.0
20
-2500.0
30
0.0
11
6135.0
21
-2500.0
31
0.0
0
LINE
8
1
10
6445.0
20
-2500.0
30
0.0
11
6635.0
21
-2500.0
31
0.0
0
LINE
8
1
10
6290.0
20
-2845.0
30
0.0
11
6290.0
21
-2655.0
31
0.0
0
LINE
8
1
10
6290.0
20
-2345.0
30
0.0
11
6290.0
21
-2155.0
31
0.0
0
TEXT
8
1
10
6190.0
20
-2600.0
30
0.0
40
200.0
1
X2
50
0
7
STANDARD
0
LINE
8
2
10
2650.0
20
-3375.0
30
0.0
11
6290.0
21
-3375.0
31
0.0
0
CIRCLE
8
2
10
2650.0
20
-3375.0
30
0.0
40
25
0
CIRCLE
8
2
10
6290.0
20
-3375.0
30
0.0
40
25
0
TEXT
8
2
10
4220.0
20
-3345.0
30
0.0
40
200.0
1
3,640
50
0
7
STANDARD
0
LINE
8
2
10
1890.0
20
-6450.0
30
0.0
11
1890.0
21
-3750.0
31
0.0
0
CIRCLE
8
2
10
1890.0
20
-6450.0
30
0.0
40
25
0
CIRCLE
8
2
10
1890.0
20
-3750.0
30
0.0
40
25
0
LINE
8
2
10
1890.0
20
-6450.0
30
0.0
11
2430.0
21
-6450.0
31
0.0
0
LINE
8
2
10
1890.0
20
-3750.0
30
0.0
11
2430.0
21
-3750.0
31
0.0
0
TEXT
8
2
10
1860.0
20
-5350.0
30
0.0
40
200.0
1
2,700
50
90
7
STANDARD
0
TEXT
8
4
10
4095.0
20
-5225.0
30
0.0
40
250.0
1
éññ±é∫
50
0
7
STANDARD
0
LINE
8
3
10
3945.0
20
-7350.0
30
0.0
11
4995.0
21
-7350.0
31
0.0
0
LINE
8
3
10
4995.0
20
-7350.0
30
0.0
11
4995.0
21
-7000.0
31
0.0
0
LINE
8
3
10
4995.0
20
-7000.0
30
0.0
11
3945.0
21
-7000.0
31
0.0
0
LINE
8
3
10
3945.0
20
-7000.0
30
0.0
11
3945.0
21
-7350.0
31
0.0
0
TEXT
8
4
10
4095.0
20
-7300.0
30
0.0
40
250.0
1
ÇbÅ@ñ 
50
0
7
STANDARD
0
LINE
8
3
10
10870.0
20
-6450.0
30
0.0
11
15260.0
21
-6450.0
31
0.0
0
LINE
8
3
10
15260.0
20
-6450.0
30
0.0
11
15260.0
21
-3750.0
31
0.0
0
LINE
8
3
10
15260.0
20
-3750.0
30
0.0
11
10870.0
21
-3750.0
31
0.0
0
LINE
8
3
10
10870.0
20
-3750.0
30
0.0
11
10870.0
21
-6450.0
31
0.0
0
LINE
8
1
10
10790.0
20
-7500.0
30
0.0
11
10790.0
21
-2850.0
31
0.0
0
LINE
8
1
10
15340.0
20
-7500.0
30
0.0
11
15340.0
21
-2850.0
31
0.0
0
CIRCLE
8
1
10
15340.0
20
-2500.0
30
0.0
40
250
0
LINE
8
1
10
14995.0
20
-2500.0
30
0.0
11
15185.0
21
-2500.0
31
0.0
0
LINE
8
1
10
15495.0
20
-2500.0
30
0.0
11
15685.0
21
-2500.0
31
0.0
0
LINE
8
1
10
15340.0
20
-2845.0
30
0.0
11
15340.0
21
-2655.0
31
0.0
0
LINE
8
1
10
15340.0
20
-2345.0
30
0.0
11
15340.0
21
-2155.0
31
0.0
0
TEXT
8
1
10
15240.0
20
-2600.0
30
0.0
40
200.0
1
Y4
50
0
7
STANDARD
0
LINE
8
2
10
10790.0
20
-3375.0
30
0.0
11
15340.0
21
-3375.0
31
0.0
0
CIRCLE
8
2
10
10790.0
20
-3375.0
30
0.0
40
25
0
CIRCLE
8
2
10
15340.0
20
-3375.0
30
0.0
40
25
0
TEXT
8
2
10
12815.0
20
-3345.0
30
0.0
40
200.0
1
4,550
50
0
7
STANDARD
0
LINE
8
2
10
10030.0
20
-6450.0
30
0.0
11
10030.0
21
-3750.0
31
0.0
0
CIRCLE
8
2
10
10030.0
20
-6450.0
30
0.0
40
25
0
CIRCLE
8
2
10
10030.0
20
-3750.0
30
0.0
40
25
0
LINE
8
2
10
10030.0
20
-6450.0
30
0.0
11
10570.0
21
-6450.0
31
0.0
0
LINE
8
2
10
10030.0
20
-3750.0
30
0.0
11
10570.0
21
-3750.0
31
0.0
0
TEXT
8
2
10
10000.0
20
-5350.0
30
0.0
40
200.0
1
2,700
50
90
7
STANDARD
0
TEXT
8
4
10
12690.0
20
-5225.0
30
0.0
40
250.0
1
éññ±é∫
50
0
7
STANDARD
0
LINE
8
3
10
12540.0
20
-7350.0
30
0.0
11
13590.0
21
-7350.0
31
0.0
0
LINE
8
3
10
13590.0
20
-7350.0
30
0.0
11
13590.0
21
-7000.0
31
0.0
0
LINE
8
3
10
13590.0
20
-7000.0
30
0.0
11
12540.0
21
-7000.0
31
0.0
0
LINE
8
3
10
12540.0
20
-7000.0
30
0.0
11
12540.0
21
-7350.0
31
0.0
0
TEXT
8
4
10
12690.0
20
-7300.0
30
0.0
40
250.0
1
ÇcÅ@ñ 
50
0
7
STANDARD
0
ENDSEC
0
EOF
