0
SECTION
2
TABLES
0
TABLE
2
LTYPE
70
2
0
LTYPE
2
CONTINUOUS
70
0
3
Solid line
72
65
73
0
40
0.0
0
LTYPE
2
DASHDOT
70
0
3
Dash dot
72
65
73
4
40
600.0
49
400.0
49
-100.0
49
0.0
49
-100.0
0
ENDTAB
0
TABLE
2
LAYER
70
5
0
LAYER
2
1
70
0
62
1
6
CONTINUOUS
0
LAYER
2
2
70
0
62
2
6
CONTINUOUS
0
LAYER
2
3
70
0
62
5
6
CONTINUOUS
0
LAYER
2
4
70
0
62
1
6
CONTINUOUS
0
LAYER
2
5
70
0
62
1
6
CONTINUOUS
0
ENDTAB
0
TABLE
2
STYLE
70
1
0
STYLE
2
STANDARD
70
0
40
0.0
41
1.0
50
0.0
71
0
42
2.5
3
txt
4

0
ENDTAB
0
ENDSEC
0
SECTION
2
ENTITIES
0
LINE
8
3
62
5
6
CONTINUOUS
10
-12760.0
20
3550.0
30
0.0
11
-9280.0
21
3550.0
31
0.0
0
LINE
8
3
62
5
6
CONTINUOUS
10
-9280.0
20
3550.0
30
0.0
11
-9280.0
21
6050.0
31
0.0
0
LINE
8
3
62
5
6
CONTINUOUS
10
-9280.0
20
6050.0
30
0.0
11
-12760.0
21
6050.0
31
0.0
0
LINE
8
3
62
5
6
CONTINUOUS
10
-12760.0
20
6050.0
30
0.0
11
-12760.0
21
3550.0
31
0.0
0
LINE
8
1
62
1
6
DASHDOT
10
-12840.0
20
2500.0
30
0.0
11
-12840.0
21
6950.0
31
0.0
0
CIRCLE
8
1
62
4
6
CONTINUOUS
10
-12840.0
20
7400.0
30
0.0
40
350
0
LINE
8
1
62
4
6
CONTINUOUS
10
-13315.0
20
7400.0
30
0.0
11
-13065.0
21
7400.0
31
0.0
0
LINE
8
1
62
4
6
CONTINUOUS
10
-12615.0
20
7400.0
30
0.0
11
-12365.0
21
7400.0
31
0.0
0
LINE
8
1
62
4
6
CONTINUOUS
10
-12840.0
20
6925.0
30
0.0
11
-12840.0
21
7175.0
31
0.0
0
LINE
8
1
62
4
6
CONTINUOUS
10
-12840.0
20
7625.0
30
0.0
11
-12840.0
21
7875.0
31
0.0
0
TEXT
8
1
62
1
10
-13015.0
20
7225.0
30
0.0
40
350.0
1
X1
50
0
7
STANDARD
0
LINE
8
1
62
1
6
DASHDOT
10
-9200.0
20
2500.0
30
0.0
11
-9200.0
21
6950.0
31
0.0
0
CIRCLE
8
1
62
4
6
CONTINUOUS
10
-9200.0
20
7400.0
30
0.0
40
350
0
LINE
8
1
62
4
6
CONTINUOUS
10
-9675.0
20
7400.0
30
0.0
11
-9425.0
21
7400.0
31
0.0
0
LINE
8
1
62
4
6
CONTINUOUS
10
-8975.0
20
7400.0
30
0.0
11
-8725.0
21
7400.0
31
0.0
0
LINE
8
1
62
4
6
CONTINUOUS
10
-9200.0
20
6925.0
30
0.0
11
-9200.0
21
7175.0
31
0.0
0
LINE
8
1
62
4
6
CONTINUOUS
10
-9200.0
20
7625.0
30
0.0
11
-9200.0
21
7875.0
31
0.0
0
TEXT
8
1
62
1
10
-9375.0
20
7225.0
30
0.0
40
350.0
1
X2
50
0
7
STANDARD
0
POINT
8
2
62
6
10
-12840.0
20
6425.0
30
0.0
0
POINT
8
2
62
6
10
-9200.0
20
6425.0
30
0.0
0
LINE
8
2
62
2
6
CONTINUOUS
10
-12840.0
20
6425.0
30
0.0
11
-9200.0
21
6425.0
31
0.0
0
TEXT
8
2
62
2
10
-11270.0
20
6455.0
30
0.0
40
200.0
1
3,640
50
0
7
STANDARD
0
LINE
8
2
62
2
6
CONTINUOUS
10
-13600.0
20
3550.0
30
0.0
11
-13060.0
21
3550.0
31
0.0
0
LINE
8
2
62
2
6
CONTINUOUS
10
-13600.0
20
6050.0
30
0.0
11
-13060.0
21
6050.0
31
0.0
0
POINT
8
2
62
6
10
-13600.0
20
3550.0
30
0.0
0
POINT
8
2
62
6
10
-13600.0
20
6050.0
30
0.0
0
LINE
8
2
62
2
6
CONTINUOUS
10
-13600.0
20
3550.0
30
0.0
11
-13600.0
21
6050.0
31
0.0
0
TEXT
8
2
62
2
10
-13630.0
20
4550.0
30
0.0
40
200.0
1
2,500
50
90
7
STANDARD
0
TEXT
8
4
62
1
10
-11395.0
20
4675.0
30
0.0
40
250.0
1
ómé∫-1
50
0
7
STANDARD
0
LINE
8
3
62
2
6
CONTINUOUS
10
-11545.0
20
2650.0
30
0.0
11
-10495.0
21
2650.0
31
0.0
0
LINE
8
3
62
2
6
CONTINUOUS
10
-10495.0
20
2650.0
30
0.0
11
-10495.0
21
3000.0
31
0.0
0
LINE
8
3
62
2
6
CONTINUOUS
10
-10495.0
20
3000.0
30
0.0
11
-11545.0
21
3000.0
31
0.0
0
LINE
8
3
62
2
6
CONTINUOUS
10
-11545.0
20
3000.0
30
0.0
11
-11545.0
21
2650.0
31
0.0
0
TEXT
8
4
62
1
10
-11395.0
20
2700.0
30
0.0
40
250.0
1
Ç`Å@ñ 
50
0
7
STANDARD
0
LINE
8
3
62
5
6
CONTINUOUS
10
-4470.0
20
3550.0
30
0.0
11
-2080.0
21
3550.0
31
0.0
0
LINE
8
3
62
5
6
CONTINUOUS
10
-2080.0
20
3550.0
30
0.0
11
-2080.0
21
6050.0
31
0.0
0
LINE
8
3
62
5
6
CONTINUOUS
10
-2080.0
20
6050.0
30
0.0
11
-4470.0
21
6050.0
31
0.0
0
LINE
8
3
62
5
6
CONTINUOUS
10
-4470.0
20
6050.0
30
0.0
11
-4470.0
21
3550.0
31
0.0
0
LINE
8
5
62
1
6
CONTINUOUS
10
-3650.0
20
3550.0
30
0.0
11
-3650.0
21
6050.0
31
0.0
0
LINE
8
1
62
1
6
DASHDOT
10
-4550.0
20
2500.0
30
0.0
11
-4550.0
21
6950.0
31
0.0
0
CIRCLE
8
1
62
4
6
CONTINUOUS
10
-4550.0
20
7400.0
30
0.0
40
350
0
LINE
8
1
62
4
6
CONTINUOUS
10
-5025.0
20
7400.0
30
0.0
11
-4775.0
21
7400.0
31
0.0
0
LINE
8
1
62
4
6
CONTINUOUS
10
-4325.0
20
7400.0
30
0.0
11
-4075.0
21
7400.0
31
0.0
0
LINE
8
1
62
4
6
CONTINUOUS
10
-4550.0
20
6925.0
30
0.0
11
-4550.0
21
7175.0
31
0.0
0
LINE
8
1
62
4
6
CONTINUOUS
10
-4550.0
20
7625.0
30
0.0
11
-4550.0
21
7875.0
31
0.0
0
TEXT
8
1
62
1
10
-4725.0
20
7225.0
30
0.0
40
350.0
1
Y2
50
0
7
STANDARD
0
LINE
8
1
62
1
6
DASHDOT
10
-3570.0
20
2500.0
30
0.0
11
-3570.0
21
6950.0
31
0.0
0
LINE
8
1
62
1
6
DASHDOT
10
-2000.0
20
2500.0
30
0.0
11
-2000.0
21
6950.0
31
0.0
0
POINT
8
2
62
6
10
-4550.0
20
6425.0
30
0.0
0
POINT
8
2
62
6
10
-3570.0
20
6425.0
30
0.0
0
LINE
8
2
62
2
6
CONTINUOUS
10
-4550.0
20
6425.0
30
0.0
11
-3570.0
21
6425.0
31
0.0
0
TEXT
8
2
62
2
10
-4210.0
20
6455.0
30
0.0
40
200.0
1
980
50
0
7
STANDARD
0
POINT
8
2
62
6
10
-3570.0
20
6425.0
30
0.0
0
POINT
8
2
62
6
10
-2000.0
20
6425.0
30
0.0
0
LINE
8
2
62
2
6
CONTINUOUS
10
-3570.0
20
6425.0
30
0.0
11
-2000.0
21
6425.0
31
0.0
0
TEXT
8
2
62
2
10
-3035.0
20
6455.0
30
0.0
40
200.0
1
1,570
50
0
7
STANDARD
0
POINT
8
2
62
6
10
-4550.0
20
6875.0
30
0.0
0
POINT
8
2
62
6
10
-2000.0
20
6875.0
30
0.0
0
LINE
8
2
62
2
6
CONTINUOUS
10
-4550.0
20
6875.0
30
0.0
11
-2000.0
21
6875.0
31
0.0
0
TEXT
8
2
62
2
10
-3525.0
20
6905.0
30
0.0
40
200.0
1
2,550
50
0
7
STANDARD
0
LINE
8
2
62
2
6
CONTINUOUS
10
-5310.0
20
3550.0
30
0.0
11
-4770.0
21
3550.0
31
0.0
0
LINE
8
2
62
2
6
CONTINUOUS
10
-5310.0
20
6050.0
30
0.0
11
-4770.0
21
6050.0
31
0.0
0
POINT
8
2
62
6
10
-5310.0
20
3550.0
30
0.0
0
POINT
8
2
62
6
10
-5310.0
20
6050.0
30
0.0
0
LINE
8
2
62
2
6
CONTINUOUS
10
-5310.0
20
3550.0
30
0.0
11
-5310.0
21
6050.0
31
0.0
0
TEXT
8
2
62
2
10
-5340.0
20
4550.0
30
0.0
40
200.0
1
2,500
50
90
7
STANDARD
0
TEXT
8
4
62
1
10
-3650.0
20
4675.0
30
0.0
40
250.0
1
ómé∫-1
50
0
7
STANDARD
0
LINE
8
3
62
2
6
CONTINUOUS
10
-3800.0
20
2650.0
30
0.0
11
-2750.0
21
2650.0
31
0.0
0
LINE
8
3
62
2
6
CONTINUOUS
10
-2750.0
20
2650.0
30
0.0
11
-2750.0
21
3000.0
31
0.0
0
LINE
8
3
62
2
6
CONTINUOUS
10
-2750.0
20
3000.0
30
0.0
11
-3800.0
21
3000.0
31
0.0
0
LINE
8
3
62
2
6
CONTINUOUS
10
-3800.0
20
3000.0
30
0.0
11
-3800.0
21
2650.0
31
0.0
0
TEXT
8
4
62
1
10
-3650.0
20
2700.0
30
0.0
40
250.0
1
ÇaÅ@ñ 
50
0
7
STANDARD
0
LINE
8
3
62
5
6
CONTINUOUS
10
2730.0
20
3550.0
30
0.0
11
6210.0
21
3550.0
31
0.0
0
LINE
8
3
62
5
6
CONTINUOUS
10
6210.0
20
3550.0
30
0.0
11
6210.0
21
6050.0
31
0.0
0
LINE
8
3
62
5
6
CONTINUOUS
10
6210.0
20
6050.0
30
0.0
11
2730.0
21
6050.0
31
0.0
0
LINE
8
3
62
5
6
CONTINUOUS
10
2730.0
20
6050.0
30
0.0
11
2730.0
21
3550.0
31
0.0
0
LINE
8
5
62
1
6
CONTINUOUS
10
3640.0
20
3550.0
30
0.0
11
3640.0
21
6050.0
31
0.0
0
LINE
8
1
62
1
6
DASHDOT
10
2650.0
20
2500.0
30
0.0
11
2650.0
21
6950.0
31
0.0
0
CIRCLE
8
1
62
4
6
CONTINUOUS
10
2650.0
20
7400.0
30
0.0
40
350
0
LINE
8
1
62
4
6
CONTINUOUS
10
2175.0
20
7400.0
30
0.0
11
2425.0
21
7400.0
31
0.0
0
LINE
8
1
62
4
6
CONTINUOUS
10
2875.0
20
7400.0
30
0.0
11
3125.0
21
7400.0
31
0.0
0
LINE
8
1
62
4
6
CONTINUOUS
10
2650.0
20
6925.0
30
0.0
11
2650.0
21
7175.0
31
0.0
0
LINE
8
1
62
4
6
CONTINUOUS
10
2650.0
20
7625.0
30
0.0
11
2650.0
21
7875.0
31
0.0
0
TEXT
8
1
62
1
10
2475.0
20
7225.0
30
0.0
40
350.0
1
X2
50
0
7
STANDARD
0
LINE
8
1
62
1
6
DASHDOT
10
3560.0
20
2500.0
30
0.0
11
3560.0
21
6950.0
31
0.0
0
LINE
8
1
62
1
6
DASHDOT
10
6290.0
20
2500.0
30
0.0
11
6290.0
21
6950.0
31
0.0
0
CIRCLE
8
1
62
4
6
CONTINUOUS
10
6290.0
20
7400.0
30
0.0
40
350
0
LINE
8
1
62
4
6
CONTINUOUS
10
5815.0
20
7400.0
30
0.0
11
6065.0
21
7400.0
31
0.0
0
LINE
8
1
62
4
6
CONTINUOUS
10
6515.0
20
7400.0
30
0.0
11
6765.0
21
7400.0
31
0.0
0
LINE
8
1
62
4
6
CONTINUOUS
10
6290.0
20
6925.0
30
0.0
11
6290.0
21
7175.0
31
0.0
0
LINE
8
1
62
4
6
CONTINUOUS
10
6290.0
20
7625.0
30
0.0
11
6290.0
21
7875.0
31
0.0
0
TEXT
8
1
62
1
10
6115.0
20
7225.0
30
0.0
40
350.0
1
X1
50
0
7
STANDARD
0
POINT
8
2
62
6
10
2650.0
20
6425.0
30
0.0
0
POINT
8
2
62
6
10
3560.0
20
6425.0
30
0.0
0
LINE
8
2
62
2
6
CONTINUOUS
10
2650.0
20
6425.0
30
0.0
11
3560.0
21
6425.0
31
0.0
0
TEXT
8
2
62
2
10
2955.0
20
6455.0
30
0.0
40
200.0
1
910
50
0
7
STANDARD
0
POINT
8
2
62
6
10
3560.0
20
6425.0
30
0.0
0
POINT
8
2
62
6
10
6290.0
20
6425.0
30
0.0
0
LINE
8
2
62
2
6
CONTINUOUS
10
3560.0
20
6425.0
30
0.0
11
6290.0
21
6425.0
31
0.0
0
TEXT
8
2
62
2
10
4675.0
20
6455.0
30
0.0
40
200.0
1
2,730
50
0
7
STANDARD
0
POINT
8
2
62
6
10
2650.0
20
6875.0
30
0.0
0
POINT
8
2
62
6
10
6290.0
20
6875.0
30
0.0
0
LINE
8
2
62
2
6
CONTINUOUS
10
2650.0
20
6875.0
30
0.0
11
6290.0
21
6875.0
31
0.0
0
TEXT
8
2
62
2
10
4220.0
20
6905.0
30
0.0
40
200.0
1
3,640
50
0
7
STANDARD
0
LINE
8
2
62
2
6
CONTINUOUS
10
1890.0
20
3550.0
30
0.0
11
2430.0
21
3550.0
31
0.0
0
LINE
8
2
62
2
6
CONTINUOUS
10
1890.0
20
6050.0
30
0.0
11
2430.0
21
6050.0
31
0.0
0
POINT
8
2
62
6
10
1890.0
20
3550.0
30
0.0
0
POINT
8
2
62
6
10
1890.0
20
6050.0
30
0.0
0
LINE
8
2
62
2
6
CONTINUOUS
10
1890.0
20
3550.0
30
0.0
11
1890.0
21
6050.0
31
0.0
0
TEXT
8
2
62
2
10
1860.0
20
4550.0
30
0.0
40
200.0
1
2,500
50
90
7
STANDARD
0
TEXT
8
4
62
1
10
4095.0
20
4675.0
30
0.0
40
250.0
1
ómé∫-1
50
0
7
STANDARD
0
LINE
8
3
62
2
6
CONTINUOUS
10
3945.0
20
2650.0
30
0.0
11
4995.0
21
2650.0
31
0.0
0
LINE
8
3
62
2
6
CONTINUOUS
10
4995.0
20
2650.0
30
0.0
11
4995.0
21
3000.0
31
0.0
0
LINE
8
3
62
2
6
CONTINUOUS
10
4995.0
20
3000.0
30
0.0
11
3945.0
21
3000.0
31
0.0
0
LINE
8
3
62
2
6
CONTINUOUS
10
3945.0
20
3000.0
30
0.0
11
3945.0
21
2650.0
31
0.0
0
TEXT
8
4
62
1
10
4095.0
20
2700.0
30
0.0
40
250.0
1
ÇbÅ@ñ 
50
0
7
STANDARD
0
LINE
8
3
62
5
6
CONTINUOUS
10
11020.0
20
3550.0
30
0.0
11
13410.0
21
3550.0
31
0.0
0
LINE
8
3
62
5
6
CONTINUOUS
10
13410.0
20
3550.0
30
0.0
11
13410.0
21
6050.0
31
0.0
0
LINE
8
3
62
5
6
CONTINUOUS
10
13410.0
20
6050.0
30
0.0
11
11020.0
21
6050.0
31
0.0
0
LINE
8
3
62
5
6
CONTINUOUS
10
11020.0
20
6050.0
30
0.0
11
11020.0
21
3550.0
31
0.0
0
LINE
8
1
62
1
6
DASHDOT
10
10940.0
20
2500.0
30
0.0
11
10940.0
21
6950.0
31
0.0
0
LINE
8
1
62
1
6
DASHDOT
10
13490.0
20
2500.0
30
0.0
11
13490.0
21
6950.0
31
0.0
0
CIRCLE
8
1
62
4
6
CONTINUOUS
10
13490.0
20
7400.0
30
0.0
40
350
0
LINE
8
1
62
4
6
CONTINUOUS
10
13015.0
20
7400.0
30
0.0
11
13265.0
21
7400.0
31
0.0
0
LINE
8
1
62
4
6
CONTINUOUS
10
13715.0
20
7400.0
30
0.0
11
13965.0
21
7400.0
31
0.0
0
LINE
8
1
62
4
6
CONTINUOUS
10
13490.0
20
6925.0
30
0.0
11
13490.0
21
7175.0
31
0.0
0
LINE
8
1
62
4
6
CONTINUOUS
10
13490.0
20
7625.0
30
0.0
11
13490.0
21
7875.0
31
0.0
0
TEXT
8
1
62
1
10
13315.0
20
7225.0
30
0.0
40
350.0
1
Y2
50
0
7
STANDARD
0
POINT
8
2
62
6
10
10940.0
20
6425.0
30
0.0
0
POINT
8
2
62
6
10
13490.0
20
6425.0
30
0.0
0
LINE
8
2
62
2
6
CONTINUOUS
10
10940.0
20
6425.0
30
0.0
11
13490.0
21
6425.0
31
0.0
0
TEXT
8
2
62
2
10
11965.0
20
6455.0
30
0.0
40
200.0
1
2,550
50
0
7
STANDARD
0
LINE
8
2
62
2
6
CONTINUOUS
10
10180.0
20
3550.0
30
0.0
11
10720.0
21
3550.0
31
0.0
0
LINE
8
2
62
2
6
CONTINUOUS
10
10180.0
20
6050.0
30
0.0
11
10720.0
21
6050.0
31
0.0
0
POINT
8
2
62
6
10
10180.0
20
3550.0
30
0.0
0
POINT
8
2
62
6
10
10180.0
20
6050.0
30
0.0
0
LINE
8
2
62
2
6
CONTINUOUS
10
10180.0
20
3550.0
30
0.0
11
10180.0
21
6050.0
31
0.0
0
TEXT
8
2
62
2
10
10150.0
20
4550.0
30
0.0
40
200.0
1
2,500
50
90
7
STANDARD
0
TEXT
8
4
62
1
10
11840.0
20
4675.0
30
0.0
40
250.0
1
ómé∫-1
50
0
7
STANDARD
0
LINE
8
3
62
2
6
CONTINUOUS
10
11690.0
20
2650.0
30
0.0
11
12740.0
21
2650.0
31
0.0
0
LINE
8
3
62
2
6
CONTINUOUS
10
12740.0
20
2650.0
30
0.0
11
12740.0
21
3000.0
31
0.0
0
LINE
8
3
62
2
6
CONTINUOUS
10
12740.0
20
3000.0
30
0.0
11
11690.0
21
3000.0
31
0.0
0
LINE
8
3
62
2
6
CONTINUOUS
10
11690.0
20
3000.0
30
0.0
11
11690.0
21
2650.0
31
0.0
0
TEXT
8
4
62
1
10
11840.0
20
2700.0
30
0.0
40
250.0
1
ÇcÅ@ñ 
50
0
7
STANDARD
0
LINE
8
3
62
5
6
CONTINUOUS
10
-14760.0
20
-6650.0
30
0.0
11
-11280.0
21
-6650.0
31
0.0
0
LINE
8
3
62
5
6
CONTINUOUS
10
-11280.0
20
-6650.0
30
0.0
11
-11280.0
21
-3950.0
31
0.0
0
LINE
8
3
62
5
6
CONTINUOUS
10
-11280.0
20
-3950.0
30
0.0
11
-14760.0
21
-3950.0
31
0.0
0
LINE
8
3
62
5
6
CONTINUOUS
10
-14760.0
20
-3950.0
30
0.0
11
-14760.0
21
-6650.0
31
0.0
0
LINE
8
5
62
1
6
CONTINUOUS
10
-13380.0
20
-6650.0
30
0.0
11
-13380.0
21
-3950.0
31
0.0
0
LINE
8
1
62
1
6
DASHDOT
10
-14840.0
20
-7700.0
30
0.0
11
-14840.0
21
-3050.0
31
0.0
0
CIRCLE
8
1
62
4
6
CONTINUOUS
10
-14840.0
20
-2600.0
30
0.0
40
350
0
LINE
8
1
62
4
6
CONTINUOUS
10
-15315.0
20
-2600.0
30
0.0
11
-15065.0
21
-2600.0
31
0.0
0
LINE
8
1
62
4
6
CONTINUOUS
10
-14615.0
20
-2600.0
30
0.0
11
-14365.0
21
-2600.0
31
0.0
0
LINE
8
1
62
4
6
CONTINUOUS
10
-14840.0
20
-3075.0
30
0.0
11
-14840.0
21
-2825.0
31
0.0
0
LINE
8
1
62
4
6
CONTINUOUS
10
-14840.0
20
-2375.0
30
0.0
11
-14840.0
21
-2125.0
31
0.0
0
TEXT
8
1
62
1
10
-15015.0
20
-2775.0
30
0.0
40
350.0
1
X2
50
0
7
STANDARD
0
LINE
8
1
62
1
6
DASHDOT
10
-13300.0
20
-7700.0
30
0.0
11
-13300.0
21
-3050.0
31
0.0
0
LINE
8
1
62
1
6
DASHDOT
10
-11200.0
20
-7700.0
30
0.0
11
-11200.0
21
-3050.0
31
0.0
0
CIRCLE
8
1
62
4
6
CONTINUOUS
10
-11200.0
20
-2600.0
30
0.0
40
350
0
LINE
8
1
62
4
6
CONTINUOUS
10
-11675.0
20
-2600.0
30
0.0
11
-11425.0
21
-2600.0
31
0.0
0
LINE
8
1
62
4
6
CONTINUOUS
10
-10975.0
20
-2600.0
30
0.0
11
-10725.0
21
-2600.0
31
0.0
0
LINE
8
1
62
4
6
CONTINUOUS
10
-11200.0
20
-3075.0
30
0.0
11
-11200.0
21
-2825.0
31
0.0
0
LINE
8
1
62
4
6
CONTINUOUS
10
-11200.0
20
-2375.0
30
0.0
11
-11200.0
21
-2125.0
31
0.0
0
TEXT
8
1
62
1
10
-11375.0
20
-2775.0
30
0.0
40
350.0
1
X3
50
0
7
STANDARD
0
POINT
8
2
62
6
10
-14840.0
20
-3575.0
30
0.0
0
POINT
8
2
62
6
10
-13300.0
20
-3575.0
30
0.0
0
LINE
8
2
62
2
6
CONTINUOUS
10
-14840.0
20
-3575.0
30
0.0
11
-13300.0
21
-3575.0
31
0.0
0
TEXT
8
2
62
2
10
-14320.0
20
-3545.0
30
0.0
40
200.0
1
1,540
50
0
7
STANDARD
0
POINT
8
2
62
6
10
-13300.0
20
-3575.0
30
0.0
0
POINT
8
2
62
6
10
-11200.0
20
-3575.0
30
0.0
0
LINE
8
2
62
2
6
CONTINUOUS
10
-13300.0
20
-3575.0
30
0.0
11
-11200.0
21
-3575.0
31
0.0
0
TEXT
8
2
62
2
10
-12500.0
20
-3545.0
30
0.0
40
200.0
1
2,100
50
0
7
STANDARD
0
POINT
8
2
62
6
10
-14840.0
20
-3125.0
30
0.0
0
POINT
8
2
62
6
10
-11200.0
20
-3125.0
30
0.0
0
LINE
8
2
62
2
6
CONTINUOUS
10
-14840.0
20
-3125.0
30
0.0
11
-11200.0
21
-3125.0
31
0.0
0
TEXT
8
2
62
2
10
-13270.0
20
-3095.0
30
0.0
40
200.0
1
3,640
50
0
7
STANDARD
0
LINE
8
2
62
2
6
CONTINUOUS
10
-15600.0
20
-6650.0
30
0.0
11
-15060.0
21
-6650.0
31
0.0
0
LINE
8
2
62
2
6
CONTINUOUS
10
-15600.0
20
-3950.0
30
0.0
11
-15060.0
21
-3950.0
31
0.0
0
POINT
8
2
62
6
10
-15600.0
20
-6650.0
30
0.0
0
POINT
8
2
62
6
10
-15600.0
20
-3950.0
30
0.0
0
LINE
8
2
62
2
6
CONTINUOUS
10
-15600.0
20
-6650.0
30
0.0
11
-15600.0
21
-3950.0
31
0.0
0
TEXT
8
2
62
2
10
-15630.0
20
-5550.0
30
0.0
40
200.0
1
2,700
50
90
7
STANDARD
0
TEXT
8
4
62
1
10
-13395.0
20
-5425.0
30
0.0
40
250.0
1
éññ±é∫
50
0
7
STANDARD
0
LINE
8
3
62
2
6
CONTINUOUS
10
-13545.0
20
-7550.0
30
0.0
11
-12495.0
21
-7550.0
31
0.0
0
LINE
8
3
62
2
6
CONTINUOUS
10
-12495.0
20
-7550.0
30
0.0
11
-12495.0
21
-7200.0
31
0.0
0
LINE
8
3
62
2
6
CONTINUOUS
10
-12495.0
20
-7200.0
30
0.0
11
-13545.0
21
-7200.0
31
0.0
0
LINE
8
3
62
2
6
CONTINUOUS
10
-13545.0
20
-7200.0
30
0.0
11
-13545.0
21
-7550.0
31
0.0
0
TEXT
8
4
62
1
10
-13395.0
20
-7500.0
30
0.0
40
250.0
1
Ç`Å@ñ 
50
0
7
STANDARD
0
LINE
8
3
62
5
6
CONTINUOUS
10
-6470.0
20
-6650.0
30
0.0
11
-2080.0
21
-6650.0
31
0.0
0
LINE
8
3
62
5
6
CONTINUOUS
10
-2080.0
20
-6650.0
30
0.0
11
-2080.0
21
-3950.0
31
0.0
0
LINE
8
3
62
5
6
CONTINUOUS
10
-2080.0
20
-3950.0
30
0.0
11
-6470.0
21
-3950.0
31
0.0
0
LINE
8
3
62
5
6
CONTINUOUS
10
-6470.0
20
-3950.0
30
0.0
11
-6470.0
21
-6650.0
31
0.0
0
LINE
8
5
62
1
6
CONTINUOUS
10
-5470.0
20
-6650.0
30
0.0
11
-5470.0
21
-3950.0
31
0.0
0
LINE
8
1
62
1
6
DASHDOT
10
-6550.0
20
-7700.0
30
0.0
11
-6550.0
21
-3050.0
31
0.0
0
CIRCLE
8
1
62
4
6
CONTINUOUS
10
-6550.0
20
-2600.0
30
0.0
40
350
0
LINE
8
1
62
4
6
CONTINUOUS
10
-7025.0
20
-2600.0
30
0.0
11
-6775.0
21
-2600.0
31
0.0
0
LINE
8
1
62
4
6
CONTINUOUS
10
-6325.0
20
-2600.0
30
0.0
11
-6075.0
21
-2600.0
31
0.0
0
LINE
8
1
62
4
6
CONTINUOUS
10
-6550.0
20
-3075.0
30
0.0
11
-6550.0
21
-2825.0
31
0.0
0
LINE
8
1
62
4
6
CONTINUOUS
10
-6550.0
20
-2375.0
30
0.0
11
-6550.0
21
-2125.0
31
0.0
0
TEXT
8
1
62
1
10
-6725.0
20
-2775.0
30
0.0
40
350.0
1
Y4
50
0
7
STANDARD
0
LINE
8
1
62
1
6
DASHDOT
10
-5550.0
20
-7700.0
30
0.0
11
-5550.0
21
-3050.0
31
0.0
0
LINE
8
1
62
1
6
DASHDOT
10
-2000.0
20
-7700.0
30
0.0
11
-2000.0
21
-3050.0
31
0.0
0
POINT
8
2
62
6
10
-6550.0
20
-3575.0
30
0.0
0
POINT
8
2
62
6
10
-5550.0
20
-3575.0
30
0.0
0
LINE
8
2
62
2
6
CONTINUOUS
10
-6550.0
20
-3575.0
30
0.0
11
-5550.0
21
-3575.0
31
0.0
0
TEXT
8
2
62
2
10
-6300.0
20
-3545.0
30
0.0
40
200.0
1
1,000
50
0
7
STANDARD
0
POINT
8
2
62
6
10
-5550.0
20
-3575.0
30
0.0
0
POINT
8
2
62
6
10
-2000.0
20
-3575.0
30
0.0
0
LINE
8
2
62
2
6
CONTINUOUS
10
-5550.0
20
-3575.0
30
0.0
11
-2000.0
21
-3575.0
31
0.0
0
TEXT
8
2
62
2
10
-4025.0
20
-3545.0
30
0.0
40
200.0
1
3,550
50
0
7
STANDARD
0
POINT
8
2
62
6
10
-6550.0
20
-3125.0
30
0.0
0
POINT
8
2
62
6
10
-2000.0
20
-3125.0
30
0.0
0
LINE
8
2
62
2
6
CONTINUOUS
10
-6550.0
20
-3125.0
30
0.0
11
-2000.0
21
-3125.0
31
0.0
0
TEXT
8
2
62
2
10
-4525.0
20
-3095.0
30
0.0
40
200.0
1
4,550
50
0
7
STANDARD
0
LINE
8
2
62
2
6
CONTINUOUS
10
-7310.0
20
-6650.0
30
0.0
11
-6770.0
21
-6650.0
31
0.0
0
LINE
8
2
62
2
6
CONTINUOUS
10
-7310.0
20
-3950.0
30
0.0
11
-6770.0
21
-3950.0
31
0.0
0
POINT
8
2
62
6
10
-7310.0
20
-6650.0
30
0.0
0
POINT
8
2
62
6
10
-7310.0
20
-3950.0
30
0.0
0
LINE
8
2
62
2
6
CONTINUOUS
10
-7310.0
20
-6650.0
30
0.0
11
-7310.0
21
-3950.0
31
0.0
0
TEXT
8
2
62
2
10
-7340.0
20
-5550.0
30
0.0
40
200.0
1
2,700
50
90
7
STANDARD
0
TEXT
8
4
62
1
10
-4650.0
20
-5425.0
30
0.0
40
250.0
1
éññ±é∫
50
0
7
STANDARD
0
LINE
8
3
62
2
6
CONTINUOUS
10
-4800.0
20
-7550.0
30
0.0
11
-3750.0
21
-7550.0
31
0.0
0
LINE
8
3
62
2
6
CONTINUOUS
10
-3750.0
20
-7550.0
30
0.0
11
-3750.0
21
-7200.0
31
0.0
0
LINE
8
3
62
2
6
CONTINUOUS
10
-3750.0
20
-7200.0
30
0.0
11
-4800.0
21
-7200.0
31
0.0
0
LINE
8
3
62
2
6
CONTINUOUS
10
-4800.0
20
-7200.0
30
0.0
11
-4800.0
21
-7550.0
31
0.0
0
TEXT
8
4
62
1
10
-4650.0
20
-7500.0
30
0.0
40
250.0
1
ÇaÅ@ñ 
50
0
7
STANDARD
0
LINE
8
3
62
5
6
CONTINUOUS
10
2730.0
20
-6650.0
30
0.0
11
6210.0
21
-6650.0
31
0.0
0
LINE
8
3
62
5
6
CONTINUOUS
10
6210.0
20
-6650.0
30
0.0
11
6210.0
21
-3950.0
31
0.0
0
LINE
8
3
62
5
6
CONTINUOUS
10
6210.0
20
-3950.0
30
0.0
11
2730.0
21
-3950.0
31
0.0
0
LINE
8
3
62
5
6
CONTINUOUS
10
2730.0
20
-3950.0
30
0.0
11
2730.0
21
-6650.0
31
0.0
0
LINE
8
1
62
1
6
DASHDOT
10
2650.0
20
-7700.0
30
0.0
11
2650.0
21
-3050.0
31
0.0
0
CIRCLE
8
1
62
4
6
CONTINUOUS
10
2650.0
20
-2600.0
30
0.0
40
350
0
LINE
8
1
62
4
6
CONTINUOUS
10
2175.0
20
-2600.0
30
0.0
11
2425.0
21
-2600.0
31
0.0
0
LINE
8
1
62
4
6
CONTINUOUS
10
2875.0
20
-2600.0
30
0.0
11
3125.0
21
-2600.0
31
0.0
0
LINE
8
1
62
4
6
CONTINUOUS
10
2650.0
20
-3075.0
30
0.0
11
2650.0
21
-2825.0
31
0.0
0
LINE
8
1
62
4
6
CONTINUOUS
10
2650.0
20
-2375.0
30
0.0
11
2650.0
21
-2125.0
31
0.0
0
TEXT
8
1
62
1
10
2475.0
20
-2775.0
30
0.0
40
350.0
1
X3
50
0
7
STANDARD
0
LINE
8
1
62
1
6
DASHDOT
10
6290.0
20
-7700.0
30
0.0
11
6290.0
21
-3050.0
31
0.0
0
CIRCLE
8
1
62
4
6
CONTINUOUS
10
6290.0
20
-2600.0
30
0.0
40
350
0
LINE
8
1
62
4
6
CONTINUOUS
10
5815.0
20
-2600.0
30
0.0
11
6065.0
21
-2600.0
31
0.0
0
LINE
8
1
62
4
6
CONTINUOUS
10
6515.0
20
-2600.0
30
0.0
11
6765.0
21
-2600.0
31
0.0
0
LINE
8
1
62
4
6
CONTINUOUS
10
6290.0
20
-3075.0
30
0.0
11
6290.0
21
-2825.0
31
0.0
0
LINE
8
1
62
4
6
CONTINUOUS
10
6290.0
20
-2375.0
30
0.0
11
6290.0
21
-2125.0
31
0.0
0
TEXT
8
1
62
1
10
6115.0
20
-2775.0
30
0.0
40
350.0
1
X2
50
0
7
STANDARD
0
POINT
8
2
62
6
10
2650.0
20
-3575.0
30
0.0
0
POINT
8
2
62
6
10
6290.0
20
-3575.0
30
0.0
0
LINE
8
2
62
2
6
CONTINUOUS
10
2650.0
20
-3575.0
30
0.0
11
6290.0
21
-3575.0
31
0.0
0
TEXT
8
2
62
2
10
4220.0
20
-3545.0
30
0.0
40
200.0
1
3,640
50
0
7
STANDARD
0
LINE
8
2
62
2
6
CONTINUOUS
10
1890.0
20
-6650.0
30
0.0
11
2430.0
21
-6650.0
31
0.0
0
LINE
8
2
62
2
6
CONTINUOUS
10
1890.0
20
-3950.0
30
0.0
11
2430.0
21
-3950.0
31
0.0
0
POINT
8
2
62
6
10
1890.0
20
-6650.0
30
0.0
0
POINT
8
2
62
6
10
1890.0
20
-3950.0
30
0.0
0
LINE
8
2
62
2
6
CONTINUOUS
10
1890.0
20
-6650.0
30
0.0
11
1890.0
21
-3950.0
31
0.0
0
TEXT
8
2
62
2
10
1860.0
20
-5550.0
30
0.0
40
200.0
1
2,700
50
90
7
STANDARD
0
TEXT
8
4
62
1
10
4095.0
20
-5425.0
30
0.0
40
250.0
1
éññ±é∫
50
0
7
STANDARD
0
LINE
8
3
62
2
6
CONTINUOUS
10
3945.0
20
-7550.0
30
0.0
11
4995.0
21
-7550.0
31
0.0
0
LINE
8
3
62
2
6
CONTINUOUS
10
4995.0
20
-7550.0
30
0.0
11
4995.0
21
-7200.0
31
0.0
0
LINE
8
3
62
2
6
CONTINUOUS
10
4995.0
20
-7200.0
30
0.0
11
3945.0
21
-7200.0
31
0.0
0
LINE
8
3
62
2
6
CONTINUOUS
10
3945.0
20
-7200.0
30
0.0
11
3945.0
21
-7550.0
31
0.0
0
TEXT
8
4
62
1
10
4095.0
20
-7500.0
30
0.0
40
250.0
1
ÇbÅ@ñ 
50
0
7
STANDARD
0
LINE
8
3
62
5
6
CONTINUOUS
10
11020.0
20
-6650.0
30
0.0
11
15410.0
21
-6650.0
31
0.0
0
LINE
8
3
62
5
6
CONTINUOUS
10
15410.0
20
-6650.0
30
0.0
11
15410.0
21
-3950.0
31
0.0
0
LINE
8
3
62
5
6
CONTINUOUS
10
15410.0
20
-3950.0
30
0.0
11
11020.0
21
-3950.0
31
0.0
0
LINE
8
3
62
5
6
CONTINUOUS
10
11020.0
20
-3950.0
30
0.0
11
11020.0
21
-6650.0
31
0.0
0
LINE
8
1
62
1
6
DASHDOT
10
10940.0
20
-7700.0
30
0.0
11
10940.0
21
-3050.0
31
0.0
0
LINE
8
1
62
1
6
DASHDOT
10
15490.0
20
-7700.0
30
0.0
11
15490.0
21
-3050.0
31
0.0
0
CIRCLE
8
1
62
4
6
CONTINUOUS
10
15490.0
20
-2600.0
30
0.0
40
350
0
LINE
8
1
62
4
6
CONTINUOUS
10
15015.0
20
-2600.0
30
0.0
11
15265.0
21
-2600.0
31
0.0
0
LINE
8
1
62
4
6
CONTINUOUS
10
15715.0
20
-2600.0
30
0.0
11
15965.0
21
-2600.0
31
0.0
0
LINE
8
1
62
4
6
CONTINUOUS
10
15490.0
20
-3075.0
30
0.0
11
15490.0
21
-2825.0
31
0.0
0
LINE
8
1
62
4
6
CONTINUOUS
10
15490.0
20
-2375.0
30
0.0
11
15490.0
21
-2125.0
31
0.0
0
TEXT
8
1
62
1
10
15315.0
20
-2775.0
30
0.0
40
350.0
1
Y4
50
0
7
STANDARD
0
POINT
8
2
62
6
10
10940.0
20
-3575.0
30
0.0
0
POINT
8
2
62
6
10
15490.0
20
-3575.0
30
0.0
0
LINE
8
2
62
2
6
CONTINUOUS
10
10940.0
20
-3575.0
30
0.0
11
15490.0
21
-3575.0
31
0.0
0
TEXT
8
2
62
2
10
12965.0
20
-3545.0
30
0.0
40
200.0
1
4,550
50
0
7
STANDARD
0
LINE
8
2
62
2
6
CONTINUOUS
10
10180.0
20
-6650.0
30
0.0
11
10720.0
21
-6650.0
31
0.0
0
LINE
8
2
62
2
6
CONTINUOUS
10
10180.0
20
-3950.0
30
0.0
11
10720.0
21
-3950.0
31
0.0
0
POINT
8
2
62
6
10
10180.0
20
-6650.0
30
0.0
0
POINT
8
2
62
6
10
10180.0
20
-3950.0
30
0.0
0
LINE
8
2
62
2
6
CONTINUOUS
10
10180.0
20
-6650.0
30
0.0
11
10180.0
21
-3950.0
31
0.0
0
TEXT
8
2
62
2
10
10150.0
20
-5550.0
30
0.0
40
200.0
1
2,700
50
90
7
STANDARD
0
TEXT
8
4
62
1
10
12840.0
20
-5425.0
30
0.0
40
250.0
1
éññ±é∫
50
0
7
STANDARD
0
LINE
8
3
62
2
6
CONTINUOUS
10
12690.0
20
-7550.0
30
0.0
11
13740.0
21
-7550.0
31
0.0
0
LINE
8
3
62
2
6
CONTINUOUS
10
13740.0
20
-7550.0
30
0.0
11
13740.0
21
-7200.0
31
0.0
0
LINE
8
3
62
2
6
CONTINUOUS
10
13740.0
20
-7200.0
30
0.0
11
12690.0
21
-7200.0
31
0.0
0
LINE
8
3
62
2
6
CONTINUOUS
10
12690.0
20
-7200.0
30
0.0
11
12690.0
21
-7550.0
31
0.0
0
TEXT
8
4
62
1
10
12840.0
20
-7500.0
30
0.0
40
250.0
1
ÇcÅ@ñ 
50
0
7
STANDARD
0
ENDSEC
0
EOF
